REM MD5 32c73235a1fbdf96d764f81808637b36
FILE "UEFA Champions League - Saison 1998-99 (France).bin" BINARY
  TRACK 01 MODE2/2352
    INDEX 01 00:00:00
  TRACK 02 AUDIO
    INDEX 00 41:58:40
    INDEX 01 42:00:40
  TRACK 03 AUDIO
    INDEX 00 46:54:45
    INDEX 01 46:56:45
REM LEADOUT 52:02:72
